Coordinates
version=1
nRows=11
nColumns=36
inDegrees=yes

Units are S.I. units (second, meters, Newtons, ...)
If the header above contains a line with 'inDegrees', this indicates whether rotational values are in degrees (yes) or radians (no).

endheader
time	pelvis_tilt	pelvis_list	pelvis_rotation	pelvis_tx	pelvis_ty	pelvis_tz	hip_flexion_r	hip_adduction_r	hip_rotation_r	knee_angle_r	knee_angle_r_beta	ankle_angle_r	subtalar_angle_r	mtp_angle_r	hip_flexion_l	hip_adduction_l	hip_rotation_l	knee_angle_l	knee_angle_l_beta	ankle_angle_l	subtalar_angle_l	mtp_angle_l	lumbar_extension	lumbar_bending	lumbar_rotation	arm_flex_r	arm_add_r	arm_rot_r	elbow_flex_r	pro_sup_r	arm_flex_l	arm_add_l	arm_rot_l	elbow_flex_l	pro_sup_l
      7.88333330	     -7.31177438	      4.04071052	     -6.80838458	     -0.02190262	      0.68351292	      0.05288122	     58.81695384	     10.13098296	      5.52285462	     83.70861441	      1.46099093	     32.37904834	    -27.32862156	     -7.49999987	     67.62344426	     -8.27479133	      5.02449545	     19.91635373	      0.34760595	    -12.58873177	    -11.88454468	     -7.49999987	    -11.26593837	      2.97242879	      2.53432937	     76.83967083	     -1.46627322	     55.28287685	     33.75734195	     78.70100192	     58.22542864	    -22.61440757	     26.81742360	     59.94145337	     83.90952032
      7.90000000	     -7.21204640	      3.97779118	     -6.88428943	     -0.02191868	      0.68299413	      0.05274313	     58.90681732	     10.27864463	      5.48520437	     83.85675988	      1.46357656	     32.30175685	    -27.34616717	     -7.49999987	     67.53289889	     -8.41150800	      4.95103783	     19.76420059	      0.34495037	    -12.32672171	    -11.36227989	     -7.49999987	    -11.32001885	      2.97959150	      2.51049784	     76.78126240	     -1.63235734	     54.93828556	     34.70074651	     77.92640258	     58.26516796	    -22.76286121	     26.61448508	     60.44688548	     83.00522341
      7.91666670	     -7.41187152	      4.09712217	     -7.01477387	     -0.02118630	      0.68365614	      0.05219926	     58.90038233	     10.40718170	      5.79904468	     83.54603731	      1.45815343	     32.07487022	    -27.68274269	     -7.49999987	     67.49339684	     -8.45912260	      4.77344489	     19.23593774	      0.33573045	    -12.92160747	    -11.83469129	     -7.49999987	    -10.77227199	      2.88106804	      2.51904522	     76.47621301	     -1.23019048	     54.95373181	     34.15468959	     77.90975269	     58.05920992	    -22.92418985	     26.85870628	     60.40677984	     82.93161460
      7.93333330	     -7.40142266	      4.09480143	     -6.96116900	     -0.02041780	      0.68407253	      0.05207347	     58.62663434	     10.41426174	      5.86622962	     83.42824060	      1.45609749	     31.94219296	    -27.89272184	     -7.49999987	     67.32587395	     -8.44380596	      4.72000728	     19.06465414	      0.33274099	    -12.84621297	    -11.70551145	     -7.49999987	    -10.67338192	      2.87062162	      2.40944372	     76.36683572	     -1.12249988	     54.78743241	     34.40099855	     77.42075931	     57.96636068	    -23.02768241	     26.85406960	     60.65241847	     82.32297889
      7.95000000	     -7.34150737	      4.04387862	     -7.00293808	     -0.02100253	      0.68456793	      0.05118564	     58.43442126	     10.47326312	      5.83946564	     83.36144252	      1.45493164	     32.04831192	    -27.82472741	     -7.49999987	     67.24617814	     -8.47763250	      4.59392442	     19.02008102	      0.33196304	    -12.32082425	    -11.21021278	     -7.49999987	    -10.77271445	      2.88117732	      2.40214594	     76.35238913	     -1.24004566	     54.53341024	     35.25754902	     76.74970523	     57.92647286	    -23.05088573	     26.69744827	     61.09719879	     81.52083418
      7.96666670	     -7.59890829	      4.24406547	     -6.83238470	     -0.02048809	      0.68493435	      0.05170983	     58.74713933	     10.34883746	      6.05311767	     83.49131269	      1.45719830	     31.95156376	    -27.77332542	     -7.49999987	     67.48220030	     -8.22268327	      4.53361299	     18.98627877	      0.33137308	    -12.66036589	    -11.92541373	     -7.49999987	    -10.25677000	      2.62713748	      2.19326825	     76.23953475	     -0.92234346	     54.61151362	     34.61057852	     76.59359144	     57.80563236	    -23.01108149	     26.94617637	     60.94760877	     81.25719304
      7.98333330	     -7.49084169	      4.34797399	     -6.69608081	     -0.02017143	      0.68775269	      0.05111483	     58.38080654	     10.21265437	      6.22410609	     83.15065629	      1.45125273	     31.62637712	    -27.95490356	     -7.49999987	     67.11235432	     -8.00569406	      4.29862519	     18.69489222	      0.32628742	    -12.62229271	    -12.02914593	     -7.49999987	    -10.25212209	      2.40159228	      2.04536201	     76.11119998	     -0.92080468	     54.49008925	     34.73520812	     76.20886441	     57.70230585	    -22.84942468	     26.96517815	     61.00544255	     80.74392402
      8.00000000	     -7.36628365	      4.23739907	     -6.71344942	     -0.02143515	      0.68975208	      0.05113097	     58.05664238	     10.25927745	      6.22019512	     82.52736558	      1.44037425	     31.28410126	    -28.23130773	     -7.49999987	     66.88317559	     -8.01293771	      4.22180345	     18.62592689	      0.32508375	    -12.39812910	    -12.14708724	     -7.49999987	    -10.42488179	      2.58511282	      1.88405295	     76.49716209	     -0.58912550	     54.77676090	     34.26040003	     80.18210796	     57.36539111	    -22.77079464	     26.05511296	     61.18718562	     85.39488432
      8.01666670	     -7.22492317	      4.36408057	     -6.71081722	     -0.02314434	      0.69282577	      0.05180162	     57.53947822	     10.16309564	      6.28838652	     81.79083922	      1.42751944	     30.43380591	    -28.64052892	     -7.49999987	     66.58916014	     -7.89220263	      4.01295682	     18.47739566	      0.32249139	    -12.47703338	    -12.35244721	     -7.49999987	    -10.62597000	      2.24865153	      1.84671317	     76.49653530	     -0.65163249	     54.31676809	     34.51526693	     79.21843219	     57.50850412	    -22.54502309	     26.22212571	     60.93370038	     84.28769631
      8.03333330	     -7.34079021	      4.41003130	     -6.50627656	     -0.02135475	      0.69230796	      0.05168471	     57.41106673	     10.06900010	      6.38009138	     81.16189441	      1.41654228	     30.40751991	    -29.10100042	     -7.49999987	     66.54238268	     -7.64652408	      3.97234402	     18.57415608	      0.32418018	    -12.18908552	    -12.21223580	     -7.49999987	    -10.33935423	      2.06657851	      1.51544851	     76.38566953	     -0.66077349	     54.34426758	     34.84345734	     78.75249038	     57.37455685	    -22.44414629	     26.42485982	     60.66702251	     83.67992807
      8.05000000	     -7.38482829	      4.52591126	     -6.41273367	     -0.02303428	      0.69573971	      0.05232321	     57.20762548	      9.98611682	      6.41958322	     80.55334878	      1.40592116	     30.02367633	    -29.51630957	     -7.49999987	     66.34916441	     -7.38700623	      3.75971938	     18.48037691	      0.32254342	    -12.08718571	    -12.12295148	     -7.49999987	    -10.22728345	      1.73422468	      1.28454499	     76.30186949	     -0.61631789	     54.26708634	     35.12990918	     78.20704572	     57.31280781	    -22.38138110	     26.60516423	     60.41078686	     82.96548880
